<mxfile host="app.diagrams.net" modified="2021-06-10T13:32:47.621Z" agent="5.0 (Macintosh; Intel Mac OS X 10_15_7) AppleWebKit/537.36 (KHTML, like Gecko) Chrome/91.0.4472.77 Safari/537.36" etag="-U01n6hAwyUxHeB1_n9Y" version="14.7.6" type="github">
  <diagram id="vfEOmMZnNsdn0EZIL1-n" name="Page-1">
    <mxGraphModel dx="1255" dy="843" grid="1" gridSize="10" guides="1" tooltips="1" connect="1" arrows="1" fold="1" page="1" pageScale="1" pageWidth="827" pageHeight="1169" math="0" shadow="0">
      <root>
        <mxCell id="0" />
        <mxCell id="1" parent="0" />
        <mxCell id="sH6kSY0vk7keuKdLFY7o-3" value="" style="group" parent="1" vertex="1" connectable="0">
          <mxGeometry x="120" y="340" width="80" height="80" as="geometry" />
        </mxCell>
        <mxCell id="sH6kSY0vk7keuKdLFY7o-1" value="" style="ellipse;whiteSpace=wrap;html=1;aspect=fixed;fillColor=#f8cecc;strokeColor=#b85450;" parent="sH6kSY0vk7keuKdLFY7o-3" vertex="1">
          <mxGeometry width="80" height="80" as="geometry" />
        </mxCell>
        <mxCell id="sH6kSY0vk7keuKdLFY7o-2" value="NEW" style="ellipse;whiteSpace=wrap;html=1;aspect=fixed;" parent="sH6kSY0vk7keuKdLFY7o-3" vertex="1">
          <mxGeometry x="10" y="10" width="60" height="60" as="geometry" />
        </mxCell>
        <mxCell id="sH6kSY0vk7keuKdLFY7o-8" value="" style="edgeStyle=orthogonalEdgeStyle;rounded=0;orthogonalLoop=1;jettySize=auto;html=1;" parent="1" source="sH6kSY0vk7keuKdLFY7o-4" target="sH6kSY0vk7keuKdLFY7o-7" edge="1">
          <mxGeometry relative="1" as="geometry" />
        </mxCell>
        <mxCell id="sH6kSY0vk7keuKdLFY7o-12" value="通过" style="edgeLabel;html=1;align=center;verticalAlign=middle;resizable=0;points=[];" parent="sH6kSY0vk7keuKdLFY7o-8" vertex="1" connectable="0">
          <mxGeometry x="-0.125" relative="1" as="geometry">
            <mxPoint as="offset" />
          </mxGeometry>
        </mxCell>
        <mxCell id="sH6kSY0vk7keuKdLFY7o-10" value="" style="edgeStyle=orthogonalEdgeStyle;rounded=0;orthogonalLoop=1;jettySize=auto;html=1;" parent="1" source="sH6kSY0vk7keuKdLFY7o-4" target="sH6kSY0vk7keuKdLFY7o-9" edge="1">
          <mxGeometry relative="1" as="geometry" />
        </mxCell>
        <mxCell id="sH6kSY0vk7keuKdLFY7o-11" value="驳回" style="edgeLabel;html=1;align=center;verticalAlign=middle;resizable=0;points=[];" parent="sH6kSY0vk7keuKdLFY7o-10" vertex="1" connectable="0">
          <mxGeometry x="-0.075" y="-2" relative="1" as="geometry">
            <mxPoint as="offset" />
          </mxGeometry>
        </mxCell>
        <mxCell id="sH6kSY0vk7keuKdLFY7o-4" value="审核中(AUDIT)" style="rounded=0;whiteSpace=wrap;html=1;" parent="1" vertex="1">
          <mxGeometry x="280" y="220" width="120" height="60" as="geometry" />
        </mxCell>
        <mxCell id="sH6kSY0vk7keuKdLFY7o-5" value="" style="endArrow=classic;html=1;exitX=1;exitY=0;exitDx=0;exitDy=0;entryX=0;entryY=0.5;entryDx=0;entryDy=0;" parent="1" source="sH6kSY0vk7keuKdLFY7o-1" target="sH6kSY0vk7keuKdLFY7o-4" edge="1">
          <mxGeometry width="50" height="50" relative="1" as="geometry">
            <mxPoint x="130" y="300" as="sourcePoint" />
            <mxPoint x="180" y="250" as="targetPoint" />
          </mxGeometry>
        </mxCell>
        <mxCell id="sH6kSY0vk7keuKdLFY7o-6" value="提交" style="edgeLabel;html=1;align=center;verticalAlign=middle;resizable=0;points=[];" parent="sH6kSY0vk7keuKdLFY7o-5" vertex="1" connectable="0">
          <mxGeometry x="-0.0648" relative="1" as="geometry">
            <mxPoint as="offset" />
          </mxGeometry>
        </mxCell>
        <mxCell id="sH6kSY0vk7keuKdLFY7o-14" value="" style="edgeStyle=orthogonalEdgeStyle;rounded=0;orthogonalLoop=1;jettySize=auto;html=1;" parent="1" source="sH6kSY0vk7keuKdLFY7o-7" target="sH6kSY0vk7keuKdLFY7o-13" edge="1">
          <mxGeometry relative="1" as="geometry" />
        </mxCell>
        <mxCell id="sH6kSY0vk7keuKdLFY7o-7" value="启用(OPEN)" style="rounded=0;whiteSpace=wrap;html=1;" parent="1" vertex="1">
          <mxGeometry x="550" y="220" width="120" height="60" as="geometry" />
        </mxCell>
        <mxCell id="Uh-MXGHqC2UEaWebHYmq-2" value="" style="edgeStyle=orthogonalEdgeStyle;rounded=0;orthogonalLoop=1;jettySize=auto;html=1;" edge="1" parent="1" source="sH6kSY0vk7keuKdLFY7o-9" target="Uh-MXGHqC2UEaWebHYmq-1">
          <mxGeometry relative="1" as="geometry" />
        </mxCell>
        <mxCell id="Uh-MXGHqC2UEaWebHYmq-5" value="复制" style="edgeLabel;html=1;align=center;verticalAlign=middle;resizable=0;points=[];" vertex="1" connectable="0" parent="Uh-MXGHqC2UEaWebHYmq-2">
          <mxGeometry relative="1" as="geometry">
            <mxPoint as="offset" />
          </mxGeometry>
        </mxCell>
        <mxCell id="sH6kSY0vk7keuKdLFY7o-9" value="驳回(REJECT)" style="rounded=0;whiteSpace=wrap;html=1;" parent="1" vertex="1">
          <mxGeometry x="280" y="360" width="120" height="60" as="geometry" />
        </mxCell>
        <mxCell id="sH6kSY0vk7keuKdLFY7o-18" value="" style="edgeStyle=orthogonalEdgeStyle;rounded=0;orthogonalLoop=1;jettySize=auto;html=1;entryX=0.5;entryY=0;entryDx=0;entryDy=0;" parent="1" source="sH6kSY0vk7keuKdLFY7o-13" target="sH6kSY0vk7keuKdLFY7o-4" edge="1">
          <mxGeometry relative="1" as="geometry">
            <mxPoint x="470" y="110" as="targetPoint" />
          </mxGeometry>
        </mxCell>
        <mxCell id="sH6kSY0vk7keuKdLFY7o-19" value="启用" style="edgeLabel;html=1;align=center;verticalAlign=middle;resizable=0;points=[];" parent="sH6kSY0vk7keuKdLFY7o-18" vertex="1" connectable="0">
          <mxGeometry x="-0.1687" y="1" relative="1" as="geometry">
            <mxPoint as="offset" />
          </mxGeometry>
        </mxCell>
        <mxCell id="sH6kSY0vk7keuKdLFY7o-13" value="关闭(CLOSED)" style="rounded=0;whiteSpace=wrap;html=1;" parent="1" vertex="1">
          <mxGeometry x="550" y="80" width="120" height="60" as="geometry" />
        </mxCell>
        <mxCell id="sH6kSY0vk7keuKdLFY7o-15" value="" style="endArrow=classic;html=1;entryX=0.25;entryY=1;entryDx=0;entryDy=0;exitX=0.25;exitY=0;exitDx=0;exitDy=0;" parent="1" source="sH6kSY0vk7keuKdLFY7o-9" target="sH6kSY0vk7keuKdLFY7o-4" edge="1">
          <mxGeometry width="50" height="50" relative="1" as="geometry">
            <mxPoint x="190" y="490" as="sourcePoint" />
            <mxPoint x="240" y="440" as="targetPoint" />
          </mxGeometry>
        </mxCell>
        <mxCell id="sH6kSY0vk7keuKdLFY7o-16" value="提交" style="edgeLabel;html=1;align=center;verticalAlign=middle;resizable=0;points=[];" parent="sH6kSY0vk7keuKdLFY7o-15" vertex="1" connectable="0">
          <mxGeometry x="0.025" y="1" relative="1" as="geometry">
            <mxPoint as="offset" />
          </mxGeometry>
        </mxCell>
        <mxCell id="Uh-MXGHqC2UEaWebHYmq-1" value="草稿(DRAFT)" style="rounded=0;whiteSpace=wrap;html=1;" vertex="1" parent="1">
          <mxGeometry x="750" y="360" width="120" height="60" as="geometry" />
        </mxCell>
        <mxCell id="Uh-MXGHqC2UEaWebHYmq-3" value="" style="endArrow=classic;html=1;exitX=1;exitY=0.5;exitDx=0;exitDy=0;entryX=0.5;entryY=0;entryDx=0;entryDy=0;" edge="1" parent="1" source="sH6kSY0vk7keuKdLFY7o-7" target="Uh-MXGHqC2UEaWebHYmq-1">
          <mxGeometry width="50" height="50" relative="1" as="geometry">
            <mxPoint x="730" y="310" as="sourcePoint" />
            <mxPoint x="780" y="260" as="targetPoint" />
            <Array as="points">
              <mxPoint x="810" y="250" />
            </Array>
          </mxGeometry>
        </mxCell>
        <mxCell id="Uh-MXGHqC2UEaWebHYmq-6" value="复制" style="edgeLabel;html=1;align=center;verticalAlign=middle;resizable=0;points=[];" vertex="1" connectable="0" parent="Uh-MXGHqC2UEaWebHYmq-3">
          <mxGeometry x="-0.384" y="-1" relative="1" as="geometry">
            <mxPoint as="offset" />
          </mxGeometry>
        </mxCell>
        <mxCell id="Uh-MXGHqC2UEaWebHYmq-4" value="" style="endArrow=classic;html=1;exitX=1;exitY=0.5;exitDx=0;exitDy=0;" edge="1" parent="1" source="sH6kSY0vk7keuKdLFY7o-13">
          <mxGeometry width="50" height="50" relative="1" as="geometry">
            <mxPoint x="687" y="110" as="sourcePoint" />
            <mxPoint x="810" y="360" as="targetPoint" />
            <Array as="points">
              <mxPoint x="810" y="110" />
            </Array>
          </mxGeometry>
        </mxCell>
        <mxCell id="Uh-MXGHqC2UEaWebHYmq-8" value="复制" style="edgeLabel;html=1;align=center;verticalAlign=middle;resizable=0;points=[];" vertex="1" connectable="0" parent="Uh-MXGHqC2UEaWebHYmq-4">
          <mxGeometry x="-0.6205" y="-1" relative="1" as="geometry">
            <mxPoint as="offset" />
          </mxGeometry>
        </mxCell>
        <mxCell id="Uh-MXGHqC2UEaWebHYmq-9" value="" style="endArrow=classic;html=1;exitX=1;exitY=0.5;exitDx=0;exitDy=0;entryX=0.25;entryY=0;entryDx=0;entryDy=0;" edge="1" parent="1" source="Uh-MXGHqC2UEaWebHYmq-1" target="sH6kSY0vk7keuKdLFY7o-4">
          <mxGeometry width="50" height="50" relative="1" as="geometry">
            <mxPoint x="920" y="380" as="sourcePoint" />
            <mxPoint x="970" y="330" as="targetPoint" />
            <Array as="points">
              <mxPoint x="970" y="390" />
              <mxPoint x="970" y="50" />
              <mxPoint x="310" y="50" />
            </Array>
          </mxGeometry>
        </mxCell>
        <mxCell id="Uh-MXGHqC2UEaWebHYmq-10" value="提交" style="edgeLabel;html=1;align=center;verticalAlign=middle;resizable=0;points=[];" vertex="1" connectable="0" parent="Uh-MXGHqC2UEaWebHYmq-9">
          <mxGeometry x="-0.1008" y="-2" relative="1" as="geometry">
            <mxPoint as="offset" />
          </mxGeometry>
        </mxCell>
      </root>
    </mxGraphModel>
  </diagram>
</mxfile>
